<svg xmlns="http://www.w3.org/2000/svg" viewBox="0 0 128 128" role="img" aria-labelledby="title desc">
  <title id="title">Trovara OS</title>
  <desc id="desc">White Trovara T and leaf monogram on a bright green tile for Trovara OS.</desc>
  <rect x="4" y="4" width="120" height="120" rx="26" fill="#2D9960"/>
  <g transform="translate(27 14) scale(.34)">
    <path fill="#FFFFFF" d="M18 14h184v48h-5c-1-24-17-39-45-39h-30v184c0 22 8 32 27 37v3H71v-3c19-5 27-15 27-37V23H68C40 23 24 38 23 62h-5Z"/>
    <path fill="#FFFFFF" d="M19 61c5 42 24 70 59 83 25 10 37 33 42 73-4-49-16-83-43-111C59 87 40 72 19 61Z"/>
    <path fill="#FFFFFF" d="M201 70c-5 46-25 76-60 91-20 9-31 29-39 61 6-42 18-72 44-99 18-19 36-36 55-53Z"/>
    <path d="M42 91c32 20 58 55 68 103" fill="none" stroke="#2D9960" stroke-width="5" stroke-linecap="round"/>
    <path d="M179 100c-31 23-56 57-69 94" fill="none" stroke="#2D9960" stroke-width="5" stroke-linecap="round"/>
  </g>
</svg>
